# xmcd CD database file
#
# Track frame offsets:
#	150
#	63920
#	92410
#	149180
#	172005
#	236550
#
# Disc length: 4702 seconds
#
# Revision: 1
# Processed by: cddbd v1.4PL0 Copyright (c) Steve Scherf et al.
# Submitted via: CDex 1.51
#
DISCID=51125c06
DTITLE=David Wright - Between Realities
DYEAR=1991
DGENRE=New Age
TTITLE0=Eastern Innersense
TTITLE1=Between Realities
TTITLE2=Strange Liaisons
TTITLE3=Over the Edge
TTITLE4=Taiga
TTITLE5=Illusions
EXTD=YEAR: 1991
EXTT0=
EXTT1=
EXTT2=
EXTT3=
EXTT4=
EXTT5=
PLAYORDER=
